<svg viewBox="0 0 97.0479 51.3147" xmlns="http://www.w3.org/2000/svg" xmlns:xlink="http://www.w3.org/1999/xlink" width="97.047852" height="51.314697" fill="none" customFrame="#000000">
	<g id="Group">
		<path id="Fill 1" d="M35.0942 1.25L35.0942 5.52495C35.0942 6.07724 35.542 6.52495 36.0942 6.52495L72.4212 6.52495C82.5482 6.52495 90.5016 14.3216 90.5016 24.4144C90.5016 24.7 90.7331 24.9315 91.0187 24.9315L96.2809 24.9315C96.5665 24.9315 96.7979 24.7 96.7979 24.4144C96.7979 10.9252 85.9559 0.25 72.4212 0.25L36.0942 0.25C35.542 0.25 35.0942 0.697715 35.0942 1.25Z" fill="rgb(107,123,132)" fill-rule="evenodd" />
		<path id="Fill 1" d="M35.0942 5.52495C35.0942 6.07724 35.542 6.52495 36.0942 6.52495L72.4212 6.52495C82.5482 6.52495 90.5016 14.3216 90.5016 24.4144C90.5016 24.7 90.7331 24.9315 91.0187 24.9315L96.2809 24.9315C96.5665 24.9315 96.7979 24.7 96.7979 24.4144C96.7979 10.9252 85.9559 0.25 72.4212 0.25L36.0942 0.25C35.542 0.25 35.0942 0.697715 35.0942 1.25L35.0942 5.52495Z" fill-rule="evenodd" stroke="rgb(127.81,147.771,159.454)" stroke-width="0.5" />
		<path id="Fill 3" d="M6.63075 25.3697C6.63075 25.1276 6.43452 24.9314 6.19246 24.9314L0.688291 24.9314C0.446229 24.9314 0.25 25.1276 0.25 25.3697C0.25 39.0191 10.4732 50.2886 23.6927 51.0261L66.0343 51.0647C66.5869 51.0647 67.0352 50.6165 67.0352 50.0638L67.0352 45.4842C67.0352 44.9319 66.5875 44.4842 66.0352 44.4842L25.1505 44.4842C14.9142 44.4559 6.63075 35.9405 6.63075 25.3697Z" fill="rgb(107,123,132)" fill-rule="evenodd" />
		<path id="Fill 3" d="M0.688291 24.9314C0.446229 24.9314 0.25 25.1276 0.25 25.3697C0.25 39.0191 10.4732 50.2886 23.6927 51.0261L66.0343 51.0647C66.5869 51.0647 67.0352 50.6165 67.0352 50.0638L67.0352 45.4842C67.0352 44.9319 66.5875 44.4842 66.0352 44.4842L25.1505 44.4842C14.9142 44.4559 6.63075 35.9405 6.63075 25.3697C6.63075 25.1276 6.43452 24.9314 6.19246 24.9314L0.688291 24.9314Z" fill-rule="evenodd" stroke="rgb(127.81,147.771,159.454)" stroke-width="0.5" />
		<path id="Fill 5" d="M27.6654 39.4499C30.4043 39.4499 32.6856 38.9178 34.9388 37.823L35.0944 37.6774L35.0944 29.843L34.2512 30.9224C32.6288 32.6953 30.4499 33.6712 27.9847 33.6712C23.3931 33.6712 18.7815 30.7033 18.7815 25.0313C18.7815 20.7449 21.962 16.1895 27.8233 16.1895C28.9928 16.1895 31.8369 16.466 34.2471 19.0255L35.0944 20.0692L35.0944 12.2702L34.9457 12.1228C32.6498 10.9722 30.3082 10.4128 27.6376 10.4128C23.0706 10.4128 19.506 11.6152 16.6678 14.0864C14.8674 15.6352 11.8647 19.106 11.8647 24.9497C11.8647 29.2705 13.4033 32.645 16.6908 35.5718C19.7491 38.2537 23.1402 39.4499 27.6654 39.4499Z" fill="rgb(107,123,132)" fill-rule="evenodd" />
		<path id="Fill 5" d="M34.9388 37.823L35.0944 37.6774L35.0944 29.843L34.2512 30.9224C32.6288 32.6953 30.4499 33.6712 27.9847 33.6712C23.3931 33.6712 18.7815 30.7033 18.7815 25.0313C18.7815 20.7449 21.962 16.1895 27.8233 16.1895C28.9928 16.1895 31.8369 16.466 34.2471 19.0255L35.0944 20.0692L35.0944 12.2702L34.9457 12.1228C32.6498 10.9722 30.3082 10.4128 27.6376 10.4128C23.0706 10.4128 19.506 11.6152 16.6678 14.0864C14.8674 15.6352 11.8647 19.106 11.8647 24.9497C11.8647 29.2705 13.4033 32.645 16.6908 35.5718C19.7491 38.2537 23.1402 39.4499 27.6654 39.4499C30.4043 39.4499 32.6856 38.9178 34.9388 37.823Z" fill-rule="evenodd" stroke="rgb(127.81,147.771,159.454)" stroke-width="0.5" />
		<path id="Fill 6" d="M58.0182 26.7873C56.2617 28.5433 53.7323 29.4753 50.5009 29.4753L47.5604 29.4753L47.5604 39.4499L40.9019 39.4499L40.9019 10.4128L49.6563 10.4128C52.9381 10.4128 55.2647 10.8903 57.4451 12.801C60.1052 15.1641 60.5019 18.4277 60.5019 20.101C60.5019 21.6648 60.1789 24.631 58.0182 26.7873ZM47.4351 16.9463L48.7994 16.9463C50.0508 16.9463 51.4772 17.0146 52.5568 17.7504C53.0839 18.127 53.9684 18.9987 53.9684 20.582C53.9684 21.7521 53.4513 22.8012 52.5973 23.4558C51.558 24.2102 50.3326 24.2075 49.3164 24.2053C49.262 24.2052 49.2081 24.2051 49.1549 24.2051L47.4351 24.2051L47.4351 16.9463Z" fill="rgb(107,123,132)" fill-rule="evenodd" />
		<path id="Fill 6" d="M50.5009 29.4753L47.5604 29.4753L47.5604 39.4499L40.9019 39.4499L40.9019 10.4128L49.6563 10.4128C52.9381 10.4128 55.2647 10.8903 57.4451 12.801C60.1052 15.1641 60.5019 18.4277 60.5019 20.101C60.5019 21.6648 60.1789 24.631 58.0182 26.7873C56.2617 28.5433 53.7323 29.4753 50.5009 29.4753ZM48.7994 16.9463C50.0508 16.9463 51.4772 17.0146 52.5568 17.7504C53.0839 18.127 53.9684 18.9987 53.9684 20.582C53.9684 21.7521 53.4513 22.8012 52.5973 23.4558C51.558 24.2102 50.3326 24.2075 49.3164 24.2053C49.262 24.2052 49.2081 24.2051 49.1549 24.2051L47.4351 24.2051L47.4351 16.9463L48.7994 16.9463Z" fill-rule="evenodd" stroke="rgb(127.81,147.771,159.454)" stroke-width="0.5" />
		<path id="Fill 7" d="M80.4769 24.1261C79.0293 22.8435 77.0085 22.1 74.715 21.3288C73.0808 20.7601 72.1804 20.4469 71.5802 19.8996C71.1064 19.4974 70.8951 19.0608 70.8951 18.4837C70.8951 17.2196 71.754 15.8688 74.1653 15.8688C75.804 15.8688 77.1761 16.5695 78.2436 17.9505L78.6674 18.4989L82.1837 14.023L81.8631 13.702C79.7126 11.5499 76.8788 10.4128 73.6679 10.4128C67.1896 10.4128 64.2897 14.6274 64.2897 18.8043C64.2897 21.0457 65.0891 22.8535 66.6606 24.1749C68.0676 25.3809 69.7835 26.0566 71.4293 26.6081L71.6154 26.6698C73.0769 27.1529 74.5885 27.6529 75.4913 28.4609C76.1194 29.038 76.3993 29.6651 76.3993 30.4942C76.3993 32.3942 74.903 33.6712 72.676 33.6712C70.9156 33.6712 68.5975 32.8083 67.3711 30.3871L67.0503 29.7528L62.6797 33.7985L62.9374 34.1631C64.3319 36.1375 67.4784 39.4499 72.8833 39.4499C78.843 39.4499 83.0056 35.6183 83.0056 30.1326C83.0056 26.9949 81.629 25.1327 80.4769 24.1261Z" fill="rgb(107,123,132)" fill-rule="evenodd" />
		<path id="Fill 7" d="M74.715 21.3288C73.0808 20.7601 72.1804 20.4469 71.5802 19.8996C71.1064 19.4974 70.8951 19.0608 70.8951 18.4837C70.8951 17.2196 71.754 15.8688 74.1653 15.8688C75.804 15.8688 77.1761 16.5695 78.2436 17.9505L78.6674 18.4989L82.1837 14.023L81.8631 13.702C79.7126 11.5499 76.8788 10.4128 73.6679 10.4128C67.1896 10.4128 64.2897 14.6274 64.2897 18.8043C64.2897 21.0457 65.0891 22.8535 66.6606 24.1749C68.0676 25.3809 69.7835 26.0566 71.4293 26.6081L71.6154 26.6698C73.0769 27.1529 74.5885 27.6529 75.4913 28.4609C76.1194 29.038 76.3993 29.6651 76.3993 30.4942C76.3993 32.3942 74.903 33.6712 72.676 33.6712C70.9156 33.6712 68.5975 32.8083 67.3711 30.3871L67.0503 29.7528L62.6797 33.7985L62.9374 34.1631C64.3319 36.1375 67.4784 39.4499 72.8833 39.4499C78.843 39.4499 83.0056 35.6183 83.0056 30.1326C83.0056 26.9949 81.629 25.1327 80.4769 24.1261C79.0293 22.8435 77.0085 22.1 74.715 21.3288Z" fill-rule="evenodd" stroke="rgb(127.81,147.771,159.454)" stroke-width="0.5" />
	</g>
</svg>
